<svg xmlns="http://www.w3.org/2000/svg" viewBox="0 0 634.93475 139.4374"><defs><style>.cls-1{fill:#d42027;}</style></defs><title>K-Business</title><g id="Layer_2" data-name="Layer 2"><g id="Layer_1-2" data-name="Layer 1"><g id="K_Business" data-name="K Business"><polygon class="cls-1" points="0 0 0 137.98 40.772 137.98 40.772 96.934 75.61 137.887 126.282 138.024 65.605 68.988 126.282 0.027 75.61 0.027 40.772 41.045 40.772 0 0 0"/><path class="cls-1" d="M190.14139,67.3937c20.523,0,33.915,15.573,33.915,35.658,0,20.231-13.392,36.385-34.204,36.385-9.899,0-20.087-4.363-25.181-12.951v11.352h-10.915V17.6157h10.915v62.149c5.676-8.15,15.428-12.371,25.47-12.371m-26.053,35.804c0,14.409,9.171,26.488,24.453,26.488,15.283,0,24.451-12.515,24.451-26.634,0-13.536-9.606-25.907-24.16-25.907-15.722,0-24.744,11.495-24.744,26.053"/><path class="cls-1" d="M262.80081,139.4369c-8.588,0-16.885-2.473-22.124-8.733-4.658-5.676-5.385-12.661-5.385-20.375v-41.19h10.915v38.277c0,12.227,1.601,22.706,16.594,22.706,14.991,0,16.591-10.479,16.591-22.706V69.1389h10.771v41.19c0,7.714-.581,14.699-5.386,20.375-5.095,6.26-13.388,8.733-21.976,8.733"/><path class="cls-1" d="M298.86481,123.4281l7.275-5.53c3.349,7.424,9.028,12.517,17.614,12.517,7.423,0,13.536-5.387,13.536-12.954,0-5.824-3.785-8.442-8.586-10.333-1.603-.585-3.348-1.167-5.094-1.745-8.879-3.06-19.069-7.134-19.069-18.925,0-11.932,10.19-19.064,21.396-19.064,7.133,0,14.845,3.929,18.776,9.751l-6.55,5.967a13.84273,13.84273,0,0,0-12.226-6.84c-5.095,0-10.625,3.929-10.625,9.169,0,5.384,4.513,7.715,9.607,9.605,5.238,1.895,10.915,3.349,15.427,6.695,4.513,3.057,7.861,7.714,7.861,15.429,0,13.827-11.353,22.267-24.597,22.267-11.063,0-20.669-5.967-24.745-16.009"/><path class="cls-1" d="M358.278,45.561a7.86,7.86,0,0,1,15.72,0,7.86,7.86,0,1,1-15.72,0m2.327,23.433h10.917v68.844H360.605Z"/><path class="cls-1" d="M433.39261,98.101c0-11.061-.872-21.247-15.136-21.247-15.718,0-18.339,13.972-18.339,26.635v34.348h-10.771V69.139h10.771V79.327a22.99071,22.99071,0,0,1,20.815-11.933c18.045,0,23.575,11.207,23.575,28.816v41.627h-10.915Z"/><path class="cls-1" d="M491.391,130.5584c9.464,0,16.884-5.237,21.397-13.534l9.897,2.619c-5.822,12.955-17.902,19.794-31.874,19.794-21.105,0-34.932-15.718-34.932-36.094,0-19.797,13.827-35.949,34.495-35.949,20.959,0,33.769,15.281,34.204,35.077.145.141.145.581.145,1.163a3.23812,3.23812,0,0,0-.145,1.309H466.65c-.437,15.573,10.188,25.615,24.741,25.615m-24.597-33.767h47.305c-1.60205-11.205-11.208-20.812-23.288-20.812-12.228,0-22.852,9.17-24.017,20.812"/><path class="cls-1" d="M529.5567,123.4281l7.275-5.53c3.349,7.424,9.025,12.517,17.613,12.517,7.423,0,13.53595-5.387,13.53595-12.954,0-5.824-3.784-8.442-8.58795-10.333-1.603-.585-3.348-1.167-5.09405-1.745-8.879-3.06-19.068-7.134-19.068-18.925,0-11.932,10.189-19.064,21.398-19.064,7.131,0,14.846,3.929,18.775,9.751l-6.55,5.967a13.84359,13.84359,0,0,0-12.225-6.84c-5.096,0-10.627,3.929-10.627,9.169,0,5.384,4.512,7.715,9.607,9.605,5.239,1.895,10.916,3.349,15.429,6.695,4.509,3.057,7.858,7.714,7.858,15.429,0,13.827-11.352,22.267-24.597,22.267-11.061,0-20.66895-5.967-24.74195-16.009"/><path class="cls-1" d="M585.59277,123.4281l7.275-5.53c3.349,7.424,9.028,12.517,17.614,12.517,7.423,0,13.536-5.387,13.536-12.954,0-5.824-3.784-8.442-8.586-10.333-1.603-.585-3.349-1.167-5.094-1.745-8.879-3.06-19.069-7.134-19.069-18.925,0-11.932,10.19-19.064,21.396-19.064,7.132,0,14.846,3.929,18.776,9.751l-6.55,5.967a13.844,13.844,0,0,0-12.226-6.84c-5.095,0-10.626,3.929-10.626,9.169,0,5.384,4.514,7.715,9.609,9.605,5.237,1.895,10.914,3.349,15.426,6.695,4.512,3.057,7.861,7.714,7.861,15.429,0,13.827-11.353,22.267-24.597,22.267-11.063,0-20.67-5.967-24.745-16.009"/></g></g></g></svg>