<?xml version="1.0" encoding="utf-8"?>
<!-- Generator: Adobe Illustrator 22.0.1, SVG Export Plug-In . SVG Version: 6.00 Build 0)  -->
<svg version="1.1" id="Layer_1" xmlns="http://www.w3.org/2000/svg" xmlns:xlink="http://www.w3.org/1999/xlink" x="0px" y="0px"
	 viewBox="0 0 156 74.58" style="enable-background:new 0 0 156 74.58;" xml:space="preserve">
<style type="text/css">
	.st0{fill:#231F20;}
	.st1{fill:#D42027;}
	.st2{fill:#FFFFFF;}
</style>
<g id="Layer_2_1_">
	<g id="Layer_1-2">
		<polygon class="st0" points="156,7 156,74.58 143.25999,64 44,64 44,7 		"/>
		<polygon class="st1" points="54.25,58 0,58 0,0 44,0 44,44.98 		"/>
		<polygon class="st2" points="32.54,13 24.67,13 20,23.85 20,13 12,13 12,45 20,45 20,34.48 24.55,45 32.48,45 25.47,29 		"/>
		<path class="st2" d="M63.22,25.54h-2.59v-4.62h9v7.35c0.00399,0.54416-0.01937,1.08818-0.07,1.63h0.07
			c1.37192-1.33503,3.22656-2.05668,5.14-2c5.17,0,8.57,4.06,8.57,10s-3.81,9.94-8.87,9.94c-3.84,0-5.21-2.33-5.21-2.33h-0.07
			c0,0,0,0.67,0,1.26v0.63h-6L63.22,25.54z M73.16,42.54c2,0,3.73-1.63,3.73-4.55s-1.52-4.69-3.73-4.69c-1.92,0-3.73,1.4-3.73,4.69
			c0,2.26,1.22,4.51,3.73,4.51V42.54z"/>
		<path class="st2" d="M85.91,25.54h-2.58v-4.62h9V40c0,1.81,0.33,2.44,1.77,2.44c0.41,0,0.78,0,0.78,0v5.06
			c-0.63748,0.07206-1.27846,0.10878-1.92,0.11c-3.4,0-7-0.81-7-7.21L85.91,25.54z"/>
		<path class="st2" d="M106.91,27.87c6,0,10.83,4,10.83,10s-4.8,9.9-10.79,9.9s-10.79-4-10.79-9.9S101,27.87,106.91,27.87z
			 M106.91,42.47c2.37477,0.01609,4.31294-1.896,4.32903-4.27077c0.0007-0.10315-0.00231-0.2063-0.00903-0.30923
			c0.1991-2.38863-1.57585-4.48641-3.96449-4.68552c-2.38863-0.1991-4.48641,1.57586-4.68552,3.96449
			c-0.02,0.23993-0.02,0.4811,0,0.72103c-0.15495,2.36976,1.64052,4.41645,4.01028,4.5714
			c0.11641,0.00761,0.23308,0.01048,0.34972,0.00861H106.91z"/>
		<path class="st2" d="M127.94,50c2.28999,0,4.39999-0.89,4.39999-3.84V45.5c0-0.22,0-0.7,0-0.7h-0.07001
			c-1.17459,1.39666-2.95055,2.1413-4.77,2c-5.73,0-8.57-4.69-8.57-9.57s2.77-9.35,8.54-9.35c2.00001,0,4.46999,0.7,5.54,2.48
			H133.08c0,0,0-0.3,0-0.48c0-0.74,0.7-1.55,2.14-1.55H141v4.62h-1.44c-0.48,0-0.81,0.26-0.81,0.7v12c0,6.95-5.53999,9.5-10.75,9.5
			c-2.49973-0.02449-4.96264-0.60521-7.21-1.7l1.81-4.66C124.27311,49.57021,126.09399,49.9828,127.94,50z M132.49001,37.32
			c0-3.36-1.77-4.1-3.7-4.1c-2.25,0-3.4,1.63-3.4,3.81c0,2.37,1.11,4.47,3.66,4.47c1.66-0.03,3.42999-0.88,3.42999-4.21
			L132.49001,37.32z"/>
	</g>
</g>
</svg>
