<svg xmlns="http://www.w3.org/2000/svg" width="192" height="30" viewBox="0 0 371.92783 58.03119">
  <title>logo</title>
  <g>
    <path d="M20.757,57.35248c-0.076-.188-7.469-19.084-7.469-19.084a0.15254,0.15254,0,0,0-.164-0.096,0.15863,0.15863,0,0,0-.12.151v19.029H0V0.67349H13.004v17.149a0.143,0.143,0,0,0,.118.142,0.15291,0.15291,0,0,0,.166-0.085s7.354-17.029,7.429-17.206H34.75c-0.177.407-11.385,26.035-11.385,26.035a0.13165,0.13165,0,0,0-.013.056,0.17175,0.17175,0,0,0,.01.057s11.478,30.136,11.634,30.531H20.757Z" style="fill: #fff"/>
    <polygon points="106.533 0.673 108.002 0.673 108.002 13.663 98.919 13.663 98.919 57.352 85.551 57.352 85.551 13.663 76.471 13.663 76.471 0.673 106.533 0.673" style="fill: #fff"/>
    <path d="M138.49121,0.67349h1.47v12.911h-12.857s5.126,13.329,5.167,13.433c-0.041.106-6.354,16.82-6.354,16.82h13.678v13.515h-33.008c0.165-.401,12.37-30.322,12.37-30.322s-10.833-25.955-11.003-26.357h30.537Z" style="fill: #fff"/>
    <path d="M161.07343,0.00018c-12.151,0-19.697,11.134-19.697,29.055,0,18.145,7.362,28.976,19.697,28.976,12.01,0,19.774-11.079,19.774-28.226,0-18.666-7.391-29.805-19.774-29.805m0,44.741c-1.582,0-6.406,0-6.406-15.686,0-15.766,4.824-15.766,6.406-15.766,4.3,0,6.477,5.303,6.477,15.766,0,10.406-2.177,15.686-6.477,15.686" style="fill: #fff"/>
    <path d="M242.4661,0.00018c-12.153,0-19.69806,11.134-19.69806,29.055,0,18.145,7.366,28.976,19.69806,28.976,12.01294,0,19.77594-11.079,19.77594-28.226,0-18.666-7.392-29.805-19.77594-29.805m0,44.741c-1.585,0-6.40906,0-6.40906-15.686,0-15.766,4.824-15.766,6.40906-15.766,4.304,0,6.481,5.303,6.481,15.766,0,10.406-2.177,15.686-6.481,15.686" style="fill: #fff"/>
    <path d="M286.1716,0.67349h1.108c0.057,0.216,15.543,56.307,15.645,56.679h-13.593c-0.45-1.804-6.359-25.252-6.405-25.437-0.301-1.207-.587-2.511-0.868-3.983h-0.289l-0.805,3.751s-6.212,25.447-6.269,25.669h-13.885c0.1-.372,15.512-56.461,15.574-56.679h9.787Z" style="fill: #fff"/>
    <path d="M321.18784,0.00018c-12.153,0-19.705,11.134-19.705,29.055,0,18.145,7.364,28.976,19.705,28.976,12.007,0,19.77295-11.079,19.77295-28.226,0-18.666-7.392-29.805-19.77295-29.805m0,44.741c-1.588,0-6.408,0-6.408-15.686,0-15.766,4.82-15.766,6.408-15.766,4.29395,0,6.481,5.303,6.481,15.766,0,10.406-2.187,15.686-6.481,15.686" style="fill: #fff"/>
    <path d="M370.45883,0.67349h1.469v12.911h-12.862s5.128,13.329,5.163,13.433c-0.035.106-6.35,16.82-6.35,16.82h13.687v13.515H338.54977c0.166-.401,12.373-30.322,12.373-30.322s-10.835-25.955-11.006-26.357h30.54205Z" style="fill: #fff"/>
    <path d="M41.46423,43.912h0.33l-0.217-.246c-3.63-4.103-5.971-10.847-5.971-17.172,0-12.76,6.42-26.494,20.506-26.494,14.085,0,20.501,13.734,20.501,26.494a27.56776,27.56776,0,0,1-6.149,17.172l-0.216.246h5.124v13.44h-18.128V40.948c0.12-.062.496-0.259,0.496-0.259,5.029-1.91,5.575-10.616,5.575-14.271,0-1.343-.202-13.128-7.203-13.128-7.012,0-7.213,11.785-7.213,13.128,0,4.428.737,12.164,5.66,14.306h-0.001c0,0.005.111,0.092,0.178,0.143V57.352h-17.892V43.912h4.62Z" style="fill: #fff"/>
    <path d="M210.89072,27.28648l-0.117-.024v-0.359l0.072-.042c3.8-2.11,6.069-6.499,6.069-11.741a14.78105,14.78105,0,0,0-3.458-10.037c-2.421-2.83-6.429-4.331-11.59-4.331h-16.927v56.558h18.026c3.742,0,9.014-.71,12.898-4.116,3.017-2.705,4.672-6.935,4.672-11.913,0-7.434-3.608-12.663-9.645-13.995m-13.7-15.644h1.183c2.145,0,3.634.18,4.937,1.088l0.005,0.003a5.62375,5.62375,0,0,1,1.995,4.655,5.4986,5.4986,0,0,1-2.064,4.657,7.89891,7.89891,0,0,1-4.74,1.088h-1.316v-11.491Zm8.576,33.315c-1.914,1.353-4.452,1.463-7.329,1.463h-1.247v-12.693h1.376c2.787,0,5.228.076,6.867,1.075h0.006a5.694,5.694,0,0,1,2.588,5.194,5.65678,5.65678,0,0,1-2.261,4.961" style="fill: #fff"/>
  </g>
</svg>
